<?xml version="1.0" encoding="UTF-8" standalone="no"?>
<svg
   version="1.1"
   viewBox="0 0 128 128.00001"
   id="svg12"
   sodipodi:docname="stopwatch-symbolic.svg"
   width="128"
   height="128"
   inkscape:version="1.1.1 (3bf5ae0d25, 2021-09-20)"
   xmlns:inkscape="http://www.inkscape.org/namespaces/inkscape"
   xmlns:sodipodi="http://sodipodi.sourceforge.net/DTD/sodipodi-0.dtd"
   xmlns="http://www.w3.org/2000/svg"
   xmlns:svg="http://www.w3.org/2000/svg">
  <defs
     id="defs16" />
  <sodipodi:namedview
     id="namedview14"
     pagecolor="#ffffff"
     bordercolor="#666666"
     borderopacity="1.0"
     inkscape:pageshadow="2"
     inkscape:pageopacity="0.0"
     inkscape:pagecheckerboard="0"
     showgrid="false"
     height="16px"
     inkscape:zoom="5.4575856"
     inkscape:cx="53.320282"
     inkscape:cy="60.557915"
     inkscape:window-width="1920"
     inkscape:window-height="1008"
     inkscape:window-x="0"
     inkscape:window-y="34"
     inkscape:window-maximized="1"
     inkscape:current-layer="svg12" />
  <g
     id="g828"
     transform="matrix(7.8235998,0,0,7.8235998,1.4112012,1.4112002)">
    <rect
       x="5.4500723"
       y="0.27176371"
       width="4.9482613"
       height="1.9793046"
       rx="0.98965228"
       ry="0.98965228"
       id="rect2"
       style="fill:#2e3436;fill-opacity:1;stroke-width:0.989652" />
    <path
       d="M 11.987728,2.8620883 A 1.4844784,1.4844784 0 0 0 11.883349,2.8640676 1.4844784,1.4844784 0 0 0 10.752572,3.48454 6.4327396,6.4327396 0 0 0 7.671488,2.869867 6.4327396,6.4327396 0 0 0 1.5750322,9.6215715 6.4327396,6.4327396 0 0 0 8.3267368,15.719908 6.4327396,6.4327396 0 0 0 14.425073,8.9701824 v -0.00396 A 6.4327396,6.4327396 0 0 0 13.062322,5.3381587 1.4844784,1.4844784 0 0 0 13.44118,4.2712146 1.4844784,1.4844784 0 0 0 11.987579,2.8621477 Z M 8.2668331,3.8575795 A 5.4430874,5.4430874 0 0 1 13.43549,9.0165377 v 0.00396 a 5.4430874,5.4430874 0 0 1 -5.1589583,5.7097983 5.4430874,5.4430874 0 0 1 -5.711778,-5.1589578 5.4430874,5.4430874 0 0 1 5.156979,-5.711778 5.4430874,5.4430874 0 0 1 0.5450806,-0.00198 z"
       id="path4"
       style="fill:#2e3436;fill-opacity:1;stroke-width:0.989652" />
    <path
       style="fill:none;stroke:#2e3436;stroke-width:0.989652px;stroke-linecap:butt;stroke-linejoin:miter;stroke-opacity:1"
       d="M 7.9242031,3.2330806 V 1.0956352"
       id="path1305"
       sodipodi:nodetypes="cc" />
    <path
       style="fill:#2e3436;fill-opacity:1;stroke:#2e3436;stroke-width:0;stroke-linecap:round;stroke-opacity:1"
       id="path6308"
       sodipodi:type="arc"
       sodipodi:cx="8"
       sodipodi:cy="9.2950649"
       sodipodi:rx="4.8750997"
       sodipodi:ry="4.8750997"
       sodipodi:start="4.712389"
       sodipodi:end="0.72167388"
       sodipodi:arc-type="slice"
       d="m 8,4.4199653 a 4.8750997,4.8750997 0 0 1 4.442286,2.8669437 4.8750997,4.8750997 0 0 1 -0.782544,5.228852 L 8,9.2950649 Z" />
  </g>
</svg>
